<?xml version="1.0" encoding="utf-8"?>
<!-- Generator: Adobe Illustrator 16.0.0, SVG Export Plug-In . SVG Version: 6.00 Build 0)  -->
<!DOCTYPE svg PUBLIC "-//W3C//DTD SVG 1.1//EN" "http://www.w3.org/Graphics/SVG/1.1/DTD/svg11.dtd">
<svg version="1.1" xmlns="http://www.w3.org/2000/svg" xmlns:xlink="http://www.w3.org/1999/xlink" x="0px" y="0px"
	 width="465.818px" height="284px" viewBox="0 0 465.818 284" enable-background="new 0 0 465.818 284" xml:space="preserve">
<g id="Layer_1">
	<g>
		<g>
			<path fill="#ED1C24" d="M69.092,240.193c-1.145,1.101-2.409,1.947-3.795,2.541c-1.386,0.595-3.146,1.023-5.28,1.287
				c-2.135,0.265-4.676,0.418-7.624,0.463c-2.948,0.043-7.547,0.065-13.794,0.065c-6.249,0-10.836-0.022-13.762-0.065
				c-2.927-0.045-5.435-0.198-7.524-0.463c-2.09-0.264-3.818-0.692-5.181-1.287c-1.365-0.594-2.619-1.44-3.762-2.541
				c-1.32-1.275-2.223-2.628-2.706-4.059c-0.485-1.43-0.726-3.179-0.726-5.247v-25.016c0-2.111,0.241-3.904,0.726-5.379
				c0.483-1.474,1.386-2.805,2.706-3.993c1.188-1.1,2.475-1.947,3.861-2.541c1.386-0.594,3.135-1.033,5.248-1.32
				c2.112-0.285,4.719-0.472,7.821-0.561c3.102-0.088,7.623-0.132,13.563-0.132c5.94,0,10.438,0.044,13.498,0.132
				c3.058,0.089,5.643,0.275,7.755,0.561c2.112,0.287,3.839,0.727,5.181,1.32c1.342,0.594,2.607,1.441,3.795,2.541
				c1.32,1.188,2.221,2.52,2.706,3.993c0.484,1.475,0.726,3.268,0.726,5.379v7.261c0,3.168,0,6.666,0,10.494l6.798,6.139v14.982
				l-8.185-7.261C70.654,238.5,69.972,239.401,69.092,240.193z M19.26,228.842c0,1.145,0.34,1.925,1.023,2.343
				c0.682,0.419,1.947,0.627,3.795,0.627c2.419,0,12.188,0,29.305,0c1.716,0,2.947-0.274,3.696-0.825
				c0.748-0.55,1.122-1.265,1.122-2.145v-5.94v-14.982c0-1.231-0.33-2.035-0.99-2.409s-1.937-0.562-3.828-0.562
				c-2.42,0-12.189,0-29.305,0c-1.716,0-2.948,0.275-3.696,0.825c-0.749,0.551-1.122,1.266-1.122,2.146V228.842z"/>
			<path fill="#ED1C24" d="M84.009,192.21h45.74c2.464,0,4.642,0.11,6.534,0.33c1.892,0.221,3.696,0.759,5.413,1.617
				c1.716,0.857,3.112,2.2,4.191,4.026c1.078,1.826,1.617,4.235,1.617,7.227c0,2.641-0.375,4.785-1.122,6.436
				c-0.749,1.65-1.628,2.883-2.64,3.696c-1.013,0.814-1.958,1.343-2.838,1.584c-0.881,0.242-1.563,0.363-2.046,0.363v0.197
				c0.924,0,1.936,0.122,3.036,0.363c1.1,0.242,2.222,0.749,3.366,1.519c1.144,0.77,2.112,1.97,2.904,3.597
				c0.792,1.629,1.188,3.74,1.188,6.336c0,3.257-0.474,5.864-1.419,7.821c-0.946,1.959-2.288,3.422-4.026,4.39
				c-1.739,0.969-3.719,1.606-5.94,1.914c-2.222,0.309-4.961,0.462-8.217,0.462h-45.74v-17.49V192.21z M99.454,212.671h28.051
				c1.188,0,2.2-0.406,3.036-1.222c0.835-0.813,1.254-1.924,1.254-3.333c0-1.231-0.396-2.254-1.188-3.068
				c-0.792-0.814-1.761-1.222-2.904-1.222H99.454V212.671z M99.718,232.01h29.371c1.275,0,2.31-0.363,3.102-1.09
				c0.792-0.726,1.188-1.881,1.188-3.465c0-1.275-0.396-2.31-1.188-3.102s-1.827-1.188-3.102-1.188H99.718V232.01z"/>
			<path fill="#414042" d="M251.522,228.182c0,5.588-1.244,9.636-3.729,12.145c-2.486,2.508-6.479,3.762-11.979,3.762
				c-6.425,0-22.045,0-46.862,0v-11.221c25.741,0,39.074,0,39.998,0s1.771-0.043,2.541-0.132c0.77-0.088,1.485-0.274,2.146-0.561
				c0.659-0.286,1.188-0.715,1.584-1.287c0.396-0.571,0.594-1.32,0.594-2.244c0-1.057-0.275-1.903-0.825-2.541
				c-0.551-0.638-1.266-1.1-2.145-1.387c-0.881-0.285-1.794-0.462-2.739-0.527c-0.947-0.066-2.103-0.1-3.466-0.1
				c-0.836-0.043-3.19-0.132-7.062-0.264c-6.072-0.22-9.879-0.363-11.419-0.429c-1.541-0.066-2.993-0.133-4.356-0.198
				c-1.364-0.066-2.531-0.143-3.498-0.231c-4.884-0.264-8.382-1.869-10.495-4.817c-1.496-2.2-2.244-5.479-2.244-9.835
				c0-5.368,1.034-9.394,3.103-12.078c2.067-2.684,5.5-4.026,10.296-4.026c6.379,0,22.594,0,48.643,0v11.221
				c-25.74,0-39.073,0-39.997,0c-0.881,0-1.673,0.044-2.376,0.132c-0.705,0.089-1.364,0.275-1.98,0.561
				c-0.617,0.287-1.112,0.716-1.485,1.287c-0.374,0.572-0.561,1.32-0.561,2.244c0,1.673,0.594,2.772,1.782,3.301
				c1.188,0.527,2.838,0.792,4.95,0.792h1.386c0.616,0,1.057,0,1.32,0c0.792,0.044,3.103,0.132,6.931,0.264
				c5.28,0.177,8.943,0.309,10.989,0.396c2.046,0.089,3.772,0.165,5.181,0.231s2.574,0.144,3.498,0.231
				c4.84,0.264,8.228,2.024,10.165,5.28C250.817,220.833,251.522,224.178,251.522,228.182z"/>
			<path fill="#414042" d="M256.538,214.057c0-4.84,0-7.326,0-7.458c0-4.752,1.375-8.338,4.125-10.759
				c2.75-2.419,6.985-3.63,12.706-3.63c8.932,0,23.804,0,44.617,0v12.738c-26.137,0-40.416,0-42.835,0
				c-1.541,0-2.685,0.265-3.433,0.792c-0.749,0.528-1.122,1.188-1.122,1.98l-0.198,4.29v12.276l0.198,4.092
				c0,0.969,0.363,1.739,1.089,2.311c0.727,0.572,1.882,0.858,3.466,0.858c2.419,0,16.698,0,42.835,0v12.54
				c-20.813,0-35.686,0-44.617,0c-5.721,0-9.956-1.21-12.706-3.63s-4.125-5.983-4.125-10.692c0-0.176,0-2.684,0-7.524V214.057z"/>
			<path fill="#414042" d="M342.077,235.243l-4.818,8.845h-17.952l28.447-51.878h20.725l28.183,51.878h-17.952l-4.752-8.845H342.077
				z M347.951,224.089h20.065l-10.032-18.679L347.951,224.089z"/>
			<path fill="#414042" d="M430.784,227.521l-12.739-11.419h21.649c1.672,0,3.146-0.495,4.422-1.484
				c1.275-0.99,1.914-2.387,1.914-4.191c-0.089-1.452-0.749-2.684-1.979-3.696c-1.232-1.012-2.619-1.518-4.158-1.518h-24.091v38.875
				h-16.171V192.21h41.647c3.607,0,6.622,0.264,9.042,0.792s4.411,1.397,5.974,2.607c1.562,1.211,2.716,2.85,3.465,4.917
				c0.748,2.068,1.122,4.687,1.122,7.854c0,6.557-1.244,11.385-3.729,14.487c-2.486,3.103-6.722,4.653-12.705,4.653H430.784z"/>
		</g>
		<g>
			<path fill="#414142" d="M27.014,266.796c0,1.658-0.369,2.859-1.107,3.604c-0.738,0.744-1.923,1.116-3.555,1.116
				c-1.907,0-6.543,0-13.909,0v-3.33c7.64,0,11.597,0,11.871,0s0.525-0.013,0.754-0.039c0.228-0.026,0.44-0.082,0.637-0.167
				c0.196-0.085,0.353-0.212,0.47-0.382c0.118-0.17,0.177-0.392,0.177-0.666c0-0.313-0.082-0.564-0.245-0.754
				c-0.164-0.189-0.375-0.326-0.637-0.412c-0.261-0.084-0.532-0.137-0.813-0.156s-0.624-0.029-1.028-0.029
				c-0.248-0.013-0.947-0.039-2.096-0.078c-1.802-0.065-2.932-0.108-3.389-0.128s-0.888-0.039-1.292-0.059
				c-0.405-0.02-0.751-0.042-1.039-0.068c-1.45-0.078-2.488-0.555-3.115-1.43c-0.444-0.653-0.666-1.626-0.666-2.919
				c0-1.594,0.307-2.788,0.921-3.585c0.614-0.797,1.632-1.195,3.056-1.195c1.894,0,6.706,0,14.438,0v3.33c-7.64,0-11.597,0-11.872,0
				c-0.261,0-0.497,0.014-0.705,0.039c-0.209,0.026-0.405,0.082-0.588,0.167c-0.183,0.085-0.33,0.212-0.44,0.382
				c-0.111,0.17-0.167,0.392-0.167,0.666c0,0.496,0.177,0.823,0.529,0.979s0.842,0.235,1.469,0.235h0.411c0.183,0,0.313,0,0.392,0
				c0.235,0.013,0.92,0.039,2.057,0.078c1.567,0.053,2.654,0.092,3.262,0.117c0.607,0.026,1.12,0.049,1.538,0.069
				c0.418,0.02,0.764,0.042,1.039,0.068c1.437,0.078,2.442,0.601,3.017,1.567C26.805,264.614,27.014,265.607,27.014,266.796z"/>
			<path fill="#414142" d="M34.379,262.604c0-1.437,0-2.175,0-2.214c0-1.41,0.408-2.475,1.225-3.193
				c0.816-0.718,2.073-1.077,3.771-1.077c2.651,0,7.065,0,13.242,0v3.781c-7.757,0-11.996,0-12.713,0
				c-0.458,0-0.797,0.078-1.019,0.234c-0.222,0.157-0.333,0.353-0.333,0.588l-0.059,1.273v3.644l0.059,1.215
				c0,0.287,0.107,0.516,0.323,0.686c0.215,0.17,0.558,0.255,1.028,0.255c0.718,0,4.956,0,12.713,0v3.722
				c-6.177,0-10.591,0-13.242,0c-1.698,0-2.955-0.359-3.771-1.077c-0.816-0.719-1.225-1.776-1.225-3.174c0-0.052,0-0.797,0-2.233
				V262.604z"/>
			<path fill="#414142" d="M65.644,268.892l-1.43,2.625h-5.329l8.443-15.397h6.151l8.365,15.397h-5.328l-1.411-2.625H65.644z
				 M67.388,265.581h5.955l-2.978-5.544L67.388,265.581z"/>
			<path fill="#414142" d="M93.05,271.458h-4.525v-15.339h7.836l9.246,11.421l0.079,0.195v-11.616h4.525v15.339h-7.777
				l-9.325-11.499l-0.059-0.138V271.458z"/>
			<path fill="#414142" d="M122.297,271.458h-4.525v-15.339h7.836l9.246,11.421l0.079,0.195v-11.616h4.525v15.339h-7.777
				l-9.325-11.499l-0.059-0.138V271.458z"/>
			<path fill="#414142" d="M152.661,256.119v15.397h-4.799v-15.397H152.661z"/>
			<path fill="#414142" d="M165.61,271.458h-4.525v-15.339h7.836l9.246,11.421l0.079,0.195v-11.616h4.525v15.339h-7.777
				l-9.325-11.499l-0.059-0.138V271.458z"/>
			<path fill="#414142" d="M209.784,259.9c-8.554,0-13.171,0-13.85,0c-0.496,0-0.855,0.078-1.077,0.234
				c-0.222,0.157-0.333,0.347-0.333,0.568v6.151c0,0.365,0.094,0.604,0.284,0.715s0.565,0.166,1.126,0.166c0.679,0,3.448,0,8.306,0
				c0.509,0,0.875-0.081,1.097-0.244c0.222-0.163,0.333-0.376,0.333-0.637v-1.764h-5.818v-2.898h9.991c0,2.076,0,3.833,0,5.27
				c0,0.64-0.068,1.172-0.206,1.596c-0.137,0.425-0.382,0.813-0.734,1.166c-0.34,0.326-0.715,0.578-1.126,0.754
				c-0.412,0.177-0.928,0.308-1.548,0.393s-1.378,0.14-2.272,0.166s-2.191,0.039-3.888,0.039c-1.698,0-2.991-0.013-3.879-0.039
				c-0.888-0.026-1.639-0.081-2.253-0.166s-1.117-0.216-1.508-0.393c-0.392-0.176-0.751-0.428-1.078-0.754
				c-0.392-0.34-0.66-0.722-0.803-1.146c-0.144-0.425-0.215-0.964-0.215-1.616c0-1.437,0-3.801,0-7.092
				c0-1.397,0.418-2.455,1.254-3.174c0.835-0.718,2.109-1.077,3.82-1.077c2.612,0,7.405,0,14.379,0V259.9z"/>
			<path fill="#414142" d="M254.605,268.97l-1.527,2.625l-3.076-1.527c-0.614,0.574-1.495,0.976-2.645,1.204
				s-2.814,0.343-4.995,0.343c-2.403,0-4.234-0.075-5.496-0.225c-1.26-0.15-2.171-0.48-2.732-0.989
				c-0.235-0.209-0.415-0.389-0.539-0.539s-0.238-0.346-0.343-0.588c-0.104-0.241-0.186-0.549-0.245-0.921
				c-0.059-0.372-0.088-0.832-0.088-1.381c0-0.522,0.029-0.992,0.088-1.41c0.059-0.418,0.192-0.819,0.401-1.205
				c0.209-0.385,0.536-0.698,0.979-0.94c0.444-0.241,1.019-0.368,1.724-0.382c0.091,0,0.137-0.02,0.137-0.059
				c0-0.052-0.046-0.098-0.137-0.137c-0.614-0.393-1.009-0.843-1.186-1.353c-0.176-0.509-0.264-1.175-0.264-1.998
				c0.013-0.613,0.101-1.077,0.264-1.391c0.164-0.313,0.447-0.646,0.853-0.999c0.404-0.365,1.097-0.591,2.077-0.676
				c0.979-0.085,2.533-0.127,4.662-0.127h8.679v2.918c-6.086,0-9.586,0-10.5,0c-1.28,0-1.92,0.34-1.92,1.02
				c0,0.287,0.039,0.509,0.117,0.666c0.079,0.156,0.262,0.3,0.549,0.431c0.091,0.039,0.47,0.229,1.136,0.568
				c0.667,0.34,1.868,0.953,3.604,1.841c0.692,0.353,1.555,0.791,2.586,1.313l0.138,0.059c0.183,0.079,0.307,0.118,0.372,0.118
				c0.156,0,0.241-0.118,0.255-0.353c0-0.079,0.006-0.189,0.02-0.333c0-0.223,0-0.405,0-0.549c0-0.365-0.014-0.688-0.039-0.97
				c-0.026-0.28-0.065-0.479-0.118-0.598l3.487,1.725c0.235,0.613,0.353,1.194,0.353,1.743c0,0.405-0.059,0.829-0.177,1.273
				L254.605,268.97z M242.382,268.5c0.235,0.013,0.398,0.02,0.489,0.02c0.327,0,0.646-0.003,0.96-0.01s0.686-0.022,1.117-0.049
				c0.744-0.039,1.267-0.085,1.567-0.138l-7.542-3.819c-0.21-0.079-0.405-0.118-0.588-0.118c-0.248,0-0.461,0.068-0.637,0.206
				c-0.177,0.137-0.317,0.32-0.421,0.549c-0.105,0.229-0.18,0.477-0.226,0.744s-0.068,0.532-0.068,0.793
				c0,0.627,0.176,1.067,0.528,1.322s0.79,0.382,1.313,0.382c0.144,0.026,0.376,0.046,0.695,0.06c0.32,0.013,0.761,0.02,1.322,0.02
				c0.483,0.013,0.875,0.026,1.176,0.039C242.146,268.5,242.251,268.5,242.382,268.5z"/>
			<path fill="#414142" d="M286.027,266.6l-3.781-3.389h6.426c0.496,0,0.934-0.147,1.313-0.441s0.568-0.708,0.568-1.243
				c-0.026-0.432-0.223-0.797-0.588-1.098c-0.366-0.3-0.777-0.45-1.234-0.45h-7.15v11.538h-4.799v-15.397h12.36
				c1.071,0,1.966,0.078,2.685,0.235c0.718,0.156,1.309,0.414,1.772,0.773c0.463,0.359,0.807,0.846,1.028,1.46
				c0.222,0.613,0.333,1.391,0.333,2.331c0,1.945-0.369,3.379-1.106,4.3c-0.738,0.921-1.995,1.381-3.771,1.381H286.027z"/>
			<path fill="#414142" d="M315.861,262.721c0.365-0.274,0.549-0.672,0.549-1.194c0-0.457-0.177-0.833-0.529-1.127
				s-0.764-0.44-1.234-0.44h-7.62v11.558h-4.799v-15.397H315c1.083,0,1.984,0.078,2.703,0.235c0.718,0.156,1.306,0.414,1.763,0.773
				s0.794,0.846,1.009,1.46c0.216,0.613,0.323,1.391,0.323,2.331s-0.085,1.73-0.255,2.37c-0.169,0.64-0.438,1.155-0.803,1.548
				c-0.366,0.392-0.853,0.679-1.459,0.861c-0.607,0.184-1.368,0.274-2.282,0.274v0.078l6.288,5.466h-5.328l-9.267-8.385h6.896
				C315.071,263.132,315.496,262.995,315.861,262.721z"/>
			<path fill="#414142" d="M333.923,256.119v15.397h-4.799v-15.397H333.923z"/>
			<path fill="#414142" d="M346.871,271.458h-4.524v-15.339h7.835l9.247,11.421l0.078,0.195v-11.616h4.525v15.339h-7.777
				l-9.324-11.499l-0.06-0.138V271.458z"/>
			<path fill="#414142" d="M382.211,271.517h-4.799v-11.832h-6.759v-3.565h18.101v3.565h-6.543V271.517z"/>
			<path fill="#414142" d="M400.606,256.119v15.397h-4.799v-15.397H400.606z"/>
			<path fill="#414142" d="M413.555,271.458h-4.524v-15.339h7.835l9.247,11.421l0.078,0.195v-11.616h4.525v15.339h-7.777
				l-9.324-11.499l-0.06-0.138V271.458z"/>
			<path fill="#414142" d="M457.729,259.9c-8.555,0-13.171,0-13.85,0c-0.497,0-0.855,0.078-1.078,0.234
				c-0.222,0.157-0.333,0.347-0.333,0.568v6.151c0,0.365,0.095,0.604,0.284,0.715s0.565,0.166,1.127,0.166c0.679,0,3.447,0,8.306,0
				c0.51,0,0.875-0.081,1.097-0.244c0.223-0.163,0.333-0.376,0.333-0.637v-1.764h-5.817v-2.898h9.99c0,2.076,0,3.833,0,5.27
				c0,0.64-0.068,1.172-0.206,1.596c-0.137,0.425-0.382,0.813-0.734,1.166c-0.34,0.326-0.715,0.578-1.126,0.754
				c-0.411,0.177-0.928,0.308-1.548,0.393s-1.378,0.14-2.272,0.166s-2.19,0.039-3.889,0.039c-1.697,0-2.99-0.013-3.879-0.039
				c-0.888-0.026-1.639-0.081-2.252-0.166c-0.614-0.085-1.117-0.216-1.509-0.393c-0.392-0.176-0.751-0.428-1.077-0.754
				c-0.393-0.34-0.66-0.722-0.804-1.146c-0.144-0.425-0.215-0.964-0.215-1.616c0-1.437,0-3.801,0-7.092
				c0-1.397,0.417-2.455,1.253-3.174c0.836-0.718,2.109-1.077,3.82-1.077c2.612,0,7.405,0,14.379,0V259.9z"/>
		</g>
		<g opacity="0.36">
			<linearGradient id="SVGID_1_" gradientUnits="userSpaceOnUse" x1="201.6812" y1="228.043" x2="201.6812" y2="87.5241">
				<stop  offset="0" style="stop-color:#FFF33B"/>
				<stop  offset="0.0595" style="stop-color:#FFE029"/>
				<stop  offset="0.1303" style="stop-color:#FFD218"/>
				<stop  offset="0.2032" style="stop-color:#FEC90F"/>
				<stop  offset="0.2809" style="stop-color:#FDC70C"/>
				<stop  offset="0.6685" style="stop-color:#F3903F"/>
				<stop  offset="0.8876" style="stop-color:#ED683C"/>
				<stop  offset="1" style="stop-color:#E93E3A"/>
			</linearGradient>
			<path fill="url(#SVGID_1_)" d="M175.189,23.488c-2.241-1.593-4.578-0.704-5.192,1.977l-21.195,92.46
				c-0.614,2.68,0.739,6.146,3.007,7.7l76.979,52.753c2.269,1.555,4.621,0.632,5.229-2.051l20.544-90.757
				c0.606-2.682-0.73-6.18-2.972-7.773L175.189,23.488z"/>
		</g>
		<g opacity="0.36">
			<linearGradient id="SVGID_2_" gradientUnits="userSpaceOnUse" x1="232.6699" y1="227.5664" x2="232.6699" y2="87.3812">
				<stop  offset="0" style="stop-color:#FFF33B"/>
				<stop  offset="0.0595" style="stop-color:#FFE029"/>
				<stop  offset="0.1303" style="stop-color:#FFD218"/>
				<stop  offset="0.2032" style="stop-color:#FEC90F"/>
				<stop  offset="0.2809" style="stop-color:#FDC70C"/>
				<stop  offset="0.6685" style="stop-color:#F3903F"/>
				<stop  offset="0.8876" style="stop-color:#ED683C"/>
				<stop  offset="1" style="stop-color:#E93E3A"/>
			</linearGradient>
			<path fill="url(#SVGID_2_)" d="M236.4,13.293c-1.51-2.299-4.01-2.318-5.556-0.044L177.52,91.703
				c-1.546,2.274-1.543,5.994,0.006,8.267l52.57,77.103c1.549,2.271,4.077,2.267,5.616-0.012l52.095-77.101
				c1.539-2.279,1.563-6.023,0.054-8.322L236.4,13.293z"/>
		</g>
		<g opacity="0.36">
			<linearGradient id="SVGID_3_" gradientUnits="userSpaceOnUse" x1="264.335" y1="228.0586" x2="264.335" y2="87.5163">
				<stop  offset="0" style="stop-color:#FFF33B"/>
				<stop  offset="0.0595" style="stop-color:#FFE029"/>
				<stop  offset="0.1303" style="stop-color:#FFD218"/>
				<stop  offset="0.2032" style="stop-color:#FEC90F"/>
				<stop  offset="0.2809" style="stop-color:#FDC70C"/>
				<stop  offset="0.6685" style="stop-color:#F3903F"/>
				<stop  offset="0.8876" style="stop-color:#ED683C"/>
				<stop  offset="1" style="stop-color:#E93E3A"/>
			</linearGradient>
			<path fill="url(#SVGID_3_)" d="M298.353,26.528c-0.551-2.694-2.866-3.639-5.145-2.099l-78.592,53.121
				c-2.278,1.54-3.654,4.996-3.057,7.681l20.268,91.091c0.597,2.685,2.947,3.616,5.221,2.069l76.951-52.318
				c2.274-1.546,3.684-5.016,3.133-7.709L298.353,26.528z"/>
		</g>
		<circle opacity="0.36" cx="167.706" cy="218.5" r="6.003"/>
	</g>
</g>
<g id="Layer_2">
</g>
</svg>
